<?xml version="1.0" encoding="utf-8"?>
<svg xmlns="http://www.w3.org/2000/svg"
	xmlns:xlink="http://www.w3.org/1999/xlink"
	width="574px" height="910px" viewBox="0 0 574 910">
<g><path fillRule="evenodd" d="M 569 859C 553.27 897.08 507 910 507 910 507 910 84 910 84 910 84 910 35.04 912.31 10 864 0 844.71-4 816.54 8 790 26.49 749.11 55.19 696.21 90 639 141.62 554.16 206 460 206 460 206 460 205 254 205 254 205 254 178 254 178 254 178 254 178 223 178 223 178 223 405 223 405 223 405 223 405 254 405 254 405 254 372 254 372 254 372 254 372 455 372 455 372 455 422.98 524.36 470 602 518.94 682.8 564 772 564 772 564 772 581.37 829.06 569 859ZM 514.29 764.67C 494.21 719.69 461.26 661.69 437.75 623.96 419.47 594.62 405 571 405 571 405 571 172 571 172 571 172 571 147.91 605.18 122.87 647.41 103.35 680.31 82.91 719.22 71.04 747.92 65.1 762.27 61.61 774.08 59.76 781.29 57.98 786.87 57 792.82 57 799 57 829.69 80.84 854.79 111 856.85 111 856.85 111 857 111 857 111 857 461 857 461 857 461 857 461 856.98 461 856.98 489.24 856.5 512.55 835.84 517.16 808.8 519.1 800.68 522.07 782.08 514.29 764.67Z" fill="rgb(255,255,255)"/><circle cx="333.00" cy="37.00" r="37.00" fill="rgb(255,255,255)"/><circle cx="346.50" cy="683.50" r="44.50" fill="rgb(255,255,255)"/><circle cx="230.50" cy="100.50" r="22.50" fill="rgb(255,255,255)"/><circle cx="204.00" cy="734.00" r="26.00" fill="rgb(255,255,255)"/><circle cx="295.50" cy="151.50" r="12.50" fill="rgb(255,255,255)"/><circle cx="279.50" cy="811.50" r="12.50" fill="rgb(255,255,255)"/></g></svg>